<?xml version="1.0" encoding="UTF-8"?>
<svg width="747px" height="432px" viewBox="0 0 747 432" version="1.1" xmlns="http://www.w3.org/2000/svg" xmlns:xlink="http://www.w3.org/1999/xlink">
    <!-- Generator: Sketch 42 (36781) - http://www.bohemiancoding.com/sketch -->
    <title>Group 3</title>
    <desc>Created with Sketch.</desc>
    <defs></defs>
    <g id="Page-1" stroke="none" stroke-width="1" fill="none" fill-rule="evenodd">
        <g id="Group-3" transform="translate(-7.000000, 0.000000)">
            <g id="frozen-yogurt-svgrepo-com-copy" transform="translate(229.000000, 0.000000)" fill-rule="nonzero" fill="#000000">
                <g id="Group">
                    <path d="M291.488,309.202 L285.259,309.202 C292.31,293 293.42,273.891 287.962,255.233 C281.879,234.432 268.419,216.933 250.907,206.433 C259.508,192.489 262.595,174.928 259.193,157.248 C255.401,137.549 243.975,120.526 228.069,110.39 C230.321,92.781 224.289,73.804 211.166,58.209 C199.91,44.835 184.611,35.783 165.691,31.305 C146.492,26.761 139.187,12.416 136.938,6.459 C136.897,6.35 136.844,6.249 136.8,6.142 C136.719,5.946 136.639,5.749 136.547,5.561 C136.488,5.441 136.419,5.328 136.355,5.211 C136.261,5.037 136.169,4.862 136.065,4.695 C135.981,4.56 135.887,4.434 135.798,4.305 C135.703,4.168 135.612,4.027 135.51,3.895 C135.399,3.751 135.279,3.617 135.161,3.48 C135.069,3.373 134.981,3.262 134.884,3.159 C134.753,3.019 134.613,2.889 134.474,2.758 C134.379,2.668 134.288,2.574 134.19,2.488 C134.048,2.363 133.899,2.249 133.75,2.133 C133.645,2.05 133.542,1.964 133.434,1.886 C133.291,1.783 133.141,1.69 132.993,1.595 C132.87,1.516 132.749,1.433 132.622,1.359 C132.485,1.279 132.343,1.209 132.202,1.136 C132.056,1.06 131.912,0.981 131.763,0.912 C131.635,0.853 131.504,0.804 131.374,0.751 C131.205,0.682 131.037,0.61 130.865,0.55 C130.745,0.508 130.622,0.476 130.501,0.439 C130.315,0.382 130.129,0.323 129.938,0.276 C129.818,0.247 129.696,0.228 129.575,0.203 C129.381,0.163 129.188,0.122 128.991,0.094 C128.857,0.075 128.72,0.067 128.585,0.053 C128.4,0.034 128.217,0.012 128.03,0.004 C127.867,-0.003 127.703,0.002 127.54,0.003 C127.379,0.004 127.219,-0.001 127.057,0.008 C126.861,0.018 126.664,0.044 126.467,0.066 C126.335,0.081 126.204,0.089 126.072,0.109 C125.857,0.142 125.643,0.192 125.428,0.239 C125.322,0.263 125.216,0.276 125.11,0.303 C125.096,0.307 125.081,0.312 125.067,0.315 C125.02,0.327 124.973,0.343 124.926,0.356 C106.306,5.171 90.257,19.116 81.971,37.701 C75.094,53.123 74.407,69.732 79.751,83.895 C62.767,95.292 50.597,113.843 46.482,135.226 C42.575,155.524 46.455,175.785 56.904,191.658 C36.69,203.3 21.122,223.23 14.166,247.015 C7.853,268.602 9.394,290.719 18.02,309.201 L10.233,309.201 C4.711,309.201 0.233,313.678 0.233,319.201 C0.233,324.724 4.711,329.201 10.233,329.201 L11.651,329.201 L26.084,423.238 C26.832,428.118 31.03,431.721 35.968,431.721 L265.751,431.721 C270.689,431.721 274.887,428.118 275.635,423.238 L290.068,329.201 L291.486,329.201 C297.008,329.201 301.486,324.724 301.486,319.201 C301.488,313.679 297.01,309.202 291.488,309.202 Z M257.17,411.721 L247.094,411.721 L242.194,411.721 L44.551,411.721 L32.476,333.048 L31.886,329.202 L36.053,329.202 L36.062,329.202 L36.074,329.202 L60.425,329.202 L60.425,362.642 C60.425,376.978 72.088,388.642 86.425,388.642 C86.442,388.642 86.459,388.64 86.476,388.64 C86.828,388.639 87.175,388.62 87.522,388.605 C88.247,388.572 88.968,388.52 89.677,388.431 C102.483,386.824 112.424,375.876 112.424,362.642 L112.424,333.048 L112.424,329.202 L254.687,329.202 L267.511,329.202 L267.523,329.202 L267.532,329.202 L269.836,329.202 L257.17,411.721 Z M262.515,309.202 L254.18,309.202 L252.537,309.202 L102.424,309.202 C99.225,309.202 96.383,310.71 94.553,313.048 C94.453,313.176 94.362,313.31 94.269,313.443 C93.114,315.072 92.425,317.053 92.425,319.202 L92.425,362.642 C92.425,365.951 89.734,368.642 86.425,368.642 C84.557,368.642 82.889,367.781 81.788,366.438 C81.778,366.427 81.768,366.416 81.758,366.405 C81.25,365.776 80.886,365.036 80.663,364.237 C80.521,363.727 80.425,363.197 80.425,362.642 L80.425,319.202 C80.425,313.679 75.947,309.202 70.425,309.202 L70.13,309.202 L41.01,309.202 C30.28,293.827 27.393,273.041 33.362,252.63 C38.266,235.863 48.488,221.583 61.81,212.24 C64.638,210.256 67.598,208.482 70.686,206.969 C79.144,214.048 89.716,220.015 102.219,224.754 C102.551,224.88 102.886,224.982 103.222,225.071 C104.066,225.294 104.918,225.406 105.761,225.406 C109.797,225.406 113.599,222.944 115.114,218.948 C117.072,213.783 114.472,208.01 109.307,206.053 C96.801,201.313 86.459,195.015 79.4,187.839 C67.525,175.77 62.561,157.515 66.124,139.007 C68.682,125.712 75.298,113.939 84.589,105.48 C86.964,103.318 89.505,101.361 92.209,99.663 C107.14,109.637 126.127,117.72 146.457,122.679 C146.519,122.694 146.58,122.711 146.642,122.726 C147.435,122.919 148.229,123.011 149.01,123.011 C153.517,123.011 157.609,119.943 158.72,115.369 C160.024,110.002 156.73,104.595 151.363,103.291 C131.783,98.535 113.772,90.655 100.392,81.017 C94.882,71.057 94.794,58.057 100.24,45.847 C103.218,39.168 107.587,33.376 112.839,28.85 C112.967,28.739 113.089,28.62 113.219,28.511 C116.086,26.094 119.206,24.047 122.516,22.454 C130.757,36.549 144.602,46.867 161.088,50.769 C175.942,54.285 187.318,60.932 195.866,71.089 C205.162,82.134 209.605,95.185 208.337,107.06 C204.97,107.539 201.466,107.861 197.852,108.044 C196.832,108.096 195.796,108.126 194.757,108.155 C190.528,108.271 186.157,108.204 181.638,107.924 C178.155,107.711 174.993,109.296 173.042,111.875 C171.895,113.391 171.166,115.248 171.039,117.288 C170.699,122.8 174.891,127.545 180.403,127.886 C184.014,128.109 187.558,128.221 191.033,128.221 C195.416,128.221 199.684,128.041 203.826,127.687 C207.842,127.343 211.741,126.836 215.508,126.162 C227.761,133.164 236.659,145.975 239.556,161.03 C242.569,176.681 238.672,191.972 229.125,202.192 C224.537,204.962 219.217,207.337 213.352,209.306 C212.21,209.689 211.056,210.062 209.873,210.414 C191.836,215.78 169.186,217.458 146.232,214.766 C142.544,214.327 139.085,215.974 137.021,218.771 C136.022,220.125 135.345,221.743 135.135,223.532 C134.491,229.017 138.416,233.986 143.902,234.629 C152.024,235.582 160.078,236.049 167.95,236.049 C185.52,236.049 202.15,233.706 216.56,229.27 C219.773,228.281 222.856,227.174 225.832,225.979 C226.111,225.867 226.405,225.767 226.682,225.653 C230,224.288 233.173,222.805 236.151,221.186 C251.55,228.612 263.585,243.124 268.768,260.849 C273.864,278.275 271.489,295.991 262.515,309.202 Z" id="Shape"></path>
                </g>
            </g>
            <g id="Group-2" transform="translate(0.000000, 316.000000)" font-size="80" font-family="Avenir-Book, Avenir" letter-spacing="0.835999846" fill="#353535" font-weight="normal">
                <text id="EST.">
                    <tspan x="0" y="80">EST.</tspan>
                </text>
                <text id="1986">
                    <tspan x="578" y="80">1986</tspan>
                </text>
            </g>
        </g>
    </g>
</svg>